# xmcd
#
# Track frame offsets: 
#        150
#        11727
#        23914
#        36918
#        49032
#        66350
#        76498
#        92690
#        110608
#        121308
#
# Disc length: 1795 seconds
#
# Revision: 2
# Processed by: cddbd v1.5.2PL0 Copyright (c) Steve Scherf et al.
# Submitted via: ExactAudioCopy v1.0b4
#
DISCID=8007010a
DTITLE=John Lee Hooker - Little Wheel (LP)
DYEAR=1975
DGENRE=Blues
TTITLE0=Little Wheel
TTITLE1=I'm In The Mood
TTITLE2=Hobo Blues
TTITLE3=Crawling King Snake
TTITLE4=Blues Before Sunrise
TTITLE5=Want Ad Blues
TTITLE6=My First Wife Left Me
TTITLE7=Wednesday Evening Blues
TTITLE8=Maudie
TTITLE9=Time Is Marching
EXTD=
EXTT0=
EXTT1=
EXTT2=
EXTT3=
EXTT4=
EXTT5=
EXTT6=
EXTT7=
EXTT8=
EXTT9=
PLAYORDER=
